<svg width="38" height="39" viewBox="0 0 38 39" fill="none" xmlns="http://www.w3.org/2000/svg">
<circle cx="19" cy="19" r="19" fill="white"/>
<path d="M19.2103 0C9.1491 0 1 8.80102 1 19.6671C1 28.3698 6.21269 35.7204 13.4513 38.3263C14.3618 38.4983 14.7032 37.9083 14.7032 37.3921C14.7032 36.925 14.6805 35.3762 14.6805 33.7291C10.1051 34.6387 8.92147 32.5245 8.55726 31.4182C8.3524 30.8528 7.46465 29.1073 6.69071 28.6402C6.05335 28.2715 5.14284 27.3618 6.66795 27.3373C8.10201 27.3127 9.12633 28.7631 9.46778 29.3531C11.1067 32.3278 13.7244 31.4919 14.7715 30.9757C14.9309 29.6973 15.4089 28.8369 15.9324 28.3452C11.8806 27.8535 7.64675 26.1572 7.64675 18.6346C7.64675 16.4958 8.3524 14.7257 9.5133 13.349C9.3312 12.8574 8.69384 10.8415 9.6954 8.13726C9.6954 8.13726 11.2205 7.621 14.7032 10.1531C16.16 9.71063 17.7079 9.48937 19.2558 9.48937C20.8037 9.48937 22.3515 9.71063 23.8084 10.1531C27.2911 7.59642 28.8162 8.13726 28.8162 8.13726C29.8178 10.8415 29.1804 12.8574 28.9983 13.349C30.1592 14.7257 30.8648 16.4712 30.8648 18.6346C30.8648 26.1818 26.6082 27.8535 22.5564 28.3452C23.2165 28.9598 23.7856 30.1398 23.7856 31.9836C23.7856 34.6141 23.7628 36.7283 23.7628 37.3921C23.7628 37.9083 24.1043 38.5229 25.0148 38.3263C28.6299 37.0082 31.7712 34.499 33.9966 31.1518C36.2221 27.8045 37.4196 23.7878 37.4205 19.6671C37.4205 8.80102 29.2714 0 19.2103 0Z" fill="#999999"/>
</svg>
