<svg width="45" height="45" viewBox="0 0 45 45" fill="none" xmlns="http://www.w3.org/2000/svg">
<rect x="2.81042" y="3.68823" width="38.5" height="38.5" rx="6" transform="rotate(-1.27283 2.81042 3.68823)" fill="#999999"/>
<path d="M26.8909 35.1816L29.6832 33.2435C29.9207 33.9363 31.3639 35.5622 33.1404 35.5227C34.9169 35.4832 35.7201 34.4946 35.7058 33.8514C35.6669 32.0984 33.8392 31.5207 32.9613 31.2432C32.8182 31.1979 32.7003 31.1607 32.6196 31.1276C32.5782 31.1107 32.5156 31.0883 32.4353 31.0597C31.4581 30.711 27.8527 29.4246 27.7647 25.4654C27.6678 21.1045 31.8653 20.5095 32.8169 20.4883C33.4396 20.4745 36.4351 20.4843 37.9883 23.253L35.2816 25.2329C34.6517 24.0253 33.6413 23.6441 33.0249 23.6578C31.5022 23.6917 31.2098 24.815 31.2211 25.3231C31.2527 26.7489 32.9213 27.3513 34.3302 27.8598C34.6988 27.9929 35.0496 28.1195 35.3487 28.2528C36.8874 28.9385 39.1553 30.0661 39.2377 33.7729C39.2789 35.6295 37.7885 38.6699 33.8682 38.757C28.6022 38.874 27.1361 35.7434 26.8909 35.1816Z" fill="white"/>
<path d="M13.1526 35.8594L16.0646 33.9196C16.3116 34.6118 17.2395 35.8776 18.5444 35.8487C19.8493 35.8197 20.4874 34.4645 20.4731 33.8216L20.1923 21.1814L23.8249 21.1007L24.1057 33.7409C24.2033 35.4831 23.3138 38.9915 19.0464 39.0863C15.1228 39.1735 13.4398 36.8778 13.1526 35.8594Z" fill="white"/>
</svg>
