<svg width="41" height="41" viewBox="0 0 41 41" fill="none" xmlns="http://www.w3.org/2000/svg">
<circle cx="20.5811" cy="20.5812" r="18.0084" fill="#999999"/>
<path d="M8.27096 20.5C8.27096 25.3461 11.0897 29.52 15.1661 31.504L9.33341 15.5238C8.63304 17.0893 8.27099 18.785 8.27096 20.5ZM20.5 32.729C21.9202 32.729 23.2862 32.4797 24.5655 32.0352L24.4788 31.8726L20.7168 21.5733L17.0525 32.2303C18.1366 32.5556 19.2966 32.729 20.5 32.729ZM22.1804 14.7649L26.6037 27.9155L27.8288 23.8391C28.3491 22.1479 28.7503 20.9337 28.7503 19.882C28.7503 18.3643 28.2082 17.3235 27.7529 16.5212C27.1241 15.5021 26.5495 14.6457 26.5495 13.6483C26.5495 12.5208 27.3951 11.48 28.6093 11.48H28.7611C26.5078 9.41137 23.5589 8.26587 20.5 8.27096C18.4746 8.27058 16.4809 8.7737 14.6983 9.73506C12.9156 10.6964 11.3999 12.0858 10.2875 13.7784L11.068 13.8C12.3473 13.8 14.3204 13.6374 14.3204 13.6374C14.9926 13.6049 15.0685 14.5698 14.4072 14.6457C14.4072 14.6457 13.7458 14.7324 12.9978 14.7649L17.4644 28.0131L20.1422 19.9905L18.2342 14.7649C17.8068 14.7413 17.3802 14.7052 16.9549 14.6565C16.2936 14.6131 16.3694 13.6049 17.0308 13.6374C17.0308 13.6374 19.0473 13.8 20.2507 13.8C21.5299 13.8 23.5031 13.6374 23.5031 13.6374C24.1644 13.6049 24.2511 14.5698 23.5898 14.6457C23.5898 14.6457 22.9285 14.7216 22.1804 14.7649ZM26.647 31.0703C28.4971 29.9946 30.0324 28.4523 31.0997 26.5974C32.1669 24.7425 32.7288 22.64 32.729 20.5C32.729 18.3751 32.187 16.3803 31.2329 14.6348C31.4267 16.5551 31.1359 18.4934 30.3873 20.2723L26.647 31.0703ZM20.5 34.5938C16.7621 34.5938 13.1773 33.1089 10.5342 30.4658C7.89112 27.8227 6.40625 24.2379 6.40625 20.5C6.40625 16.7621 7.89112 13.1773 10.5342 10.5342C13.1773 7.89112 16.7621 6.40625 20.5 6.40625C24.2379 6.40625 27.8227 7.89112 30.4658 10.5342C33.1089 13.1773 34.5938 16.7621 34.5938 20.5C34.5938 24.2379 33.1089 27.8227 30.4658 30.4658C27.8227 33.1089 24.2379 34.5938 20.5 34.5938Z" fill="white"/>
</svg>
