<svg width="23" height="23" viewBox="0 0 23 23" fill="none" xmlns="http://www.w3.org/2000/svg">
<path d="M11.1103 0.75501C11.1334 0.405635 11.6372 0.37923 11.6966 0.724283L12.1949 3.61898C12.8383 7.35681 15.9592 10.1668 19.7437 10.416L22.6747 10.609C23.0241 10.632 23.0505 11.1358 22.7054 11.1953L19.8107 11.6935C16.0729 12.3369 13.2629 15.4578 13.0137 19.2424L12.8207 22.1733C12.7977 22.5227 12.2939 22.5491 12.2344 22.204L11.7362 19.3093C11.0928 15.5715 7.97191 12.7615 4.1873 12.5123L1.25638 12.3194C0.907002 12.2963 0.880597 11.7925 1.22565 11.7331L4.12035 11.2348C7.85818 10.5914 10.6682 7.47054 10.9174 3.68593L11.1103 0.75501Z" fill="white"/>
</svg>
