<svg width="34" height="32" viewBox="0 0 34 32" fill="none" xmlns="http://www.w3.org/2000/svg">
<path d="M3.29904 0.479313C2.45919 -0.238128 1.19675 -0.138895 0.479313 0.700957C-0.238128 1.54081 -0.138895 2.80325 0.700957 3.52069L3.29904 0.479313ZM32.1567 29.6213C33.2579 29.5347 34.0804 28.5719 33.9938 27.4707L32.5833 9.52604C32.4968 8.42487 31.5339 7.60236 30.4327 7.68892C29.3316 7.77548 28.5091 8.73832 28.5956 9.83949L29.8494 25.7903L13.8986 27.0441C12.7975 27.1307 11.9749 28.0935 12.0615 29.1947C12.1481 30.2958 13.1109 31.1184 14.2121 31.0318L32.1567 29.6213ZM0.700957 3.52069L30.701 29.1481L33.299 26.1067L3.29904 0.479313L0.700957 3.52069Z" fill="white"/>
</svg>
