<svg width="20" height="20" viewBox="0 0 20 20" fill="none" xmlns="http://www.w3.org/2000/svg">
<path d="M0.539315 17.3394C-0.046471 17.9252 -0.046471 18.8749 0.539315 19.4607C1.1251 20.0465 2.07485 20.0465 2.66064 19.4607L0.539315 17.3394ZM19.9 1.60002C19.9 0.771597 19.2284 0.100024 18.4 0.100023L4.89998 0.100024C4.07155 0.100024 3.39998 0.771596 3.39998 1.60002C3.39998 2.42845 4.07155 3.10002 4.89998 3.10002H16.9V15.1C16.9 15.9285 17.5715 16.6 18.4 16.6C19.2284 16.6 19.9 15.9285 19.9 15.1L19.9 1.60002ZM2.66064 19.4607L19.4606 2.66068L17.3393 0.539364L0.539315 17.3394L2.66064 19.4607Z" fill="black"/>
</svg>
