<svg width="32" height="32" viewBox="0 0 32 32" fill="none" xmlns="http://www.w3.org/2000/svg">
    <path d="M16 0C7.17333 0 0 7.17333 0 16C0 24.8267 7.17333 32 16 32C24.8267 32 32 24.8267 32 16C32 7.17333 24.8267 0 16 0ZM16 29.3333C8.65333 29.3333 2.66667 23.3467 2.66667 16C2.66667 8.65333 8.65333 2.66667 16 2.66667C23.3467 2.66667 29.3333 8.65333 29.3333 16C29.3333 23.3467 23.3467 29.3333 16 29.3333ZM24.7603 14.6667C25.4967 14.6667 26.0937 15.2636 26.0937 16C26.0937 16.7364 25.4967 17.3333 24.7603 17.3333H7.33334C6.59696 17.3333 6 16.7364 6 16C6 15.2636 6.59695 14.6667 7.33333 14.6667H24.7603Z" fill="currentColor"/>
</svg>
