<svg width="32" height="32" viewBox="0 0 32 32" fill="none" xmlns="http://www.w3.org/2000/svg">
    <path d="M16 0C7.17333 0 0 7.17333 0 16C0 24.8267 7.17333 32 16 32C24.8267 32 32 24.8267 32 16C32 7.17333 24.8267 0 16 0ZM16 29.3333C8.65333 29.3333 2.66667 23.3467 2.66667 16C2.66667 8.65333 8.65333 2.66667 16 2.66667C23.3467 2.66667 29.3333 8.65333 29.3333 16C29.3333 23.3467 23.3467 29.3333 16 29.3333ZM25.3333 14.6667C26.0697 14.6667 26.6667 15.2636 26.6667 16C26.6667 16.7364 26.0697 17.3333 25.3333 17.3333H19.3333C18.2288 17.3333 17.3333 18.2288 17.3333 19.3333V25.3333C17.3333 26.0697 16.7364 26.6667 16 26.6667C15.2636 26.6667 14.6667 26.0697 14.6667 25.3333V19.3333C14.6667 18.2288 13.7712 17.3333 12.6667 17.3333H6.66667C5.93029 17.3333 5.33333 16.7364 5.33333 16C5.33333 15.2636 5.93029 14.6667 6.66667 14.6667H12.6667C13.7712 14.6667 14.6667 13.7712 14.6667 12.6667V6.66667C14.6667 5.93029 15.2636 5.33333 16 5.33333C16.7364 5.33333 17.3333 5.93029 17.3333 6.66667V12.6667C17.3333 13.7712 18.2288 14.6667 19.3333 14.6667H25.3333Z" fill="currentColor"/>
</svg>
