<svg width="22" height="23" viewBox="0 0 22 23" fill="none" xmlns="http://www.w3.org/2000/svg">
    <path d="M10.7064 0.635578C10.7477 0.288141 11.2523 0.288141 11.2936 0.635578L11.6396 3.55026C12.0865 7.31391 15.056 10.2813 18.8224 10.7278L21.7392 11.0737C22.0869 11.1149 22.0869 11.6191 21.7392 11.6603L18.8224 12.0062C15.056 12.4527 12.0865 15.4201 11.6396 19.1837L11.2936 22.0984C11.2523 22.4459 10.7477 22.4459 10.7064 22.0984L10.3604 19.1837C9.91346 15.4201 6.94396 12.4527 3.17757 12.0062L0.260768 11.6603C-0.0869226 11.6191 -0.0869226 11.1149 0.260768 11.0737L3.17757 10.7278C6.94396 10.2813 9.91346 7.31391 10.3604 3.55026L10.7064 0.635578Z" fill="currentColor"/>
</svg>
