<svg width="48" height="48" viewBox="0 0 48 48" fill="none" xmlns="http://www.w3.org/2000/svg">
<g clip-path="url(#clip0_145_909)">
<path d="M26.8609 35.5904L26.8625 35.5991L26.8643 35.6078C27.0723 36.6173 27.4907 37.5772 27.8631 38.4315C27.8887 38.4902 27.9141 38.5484 27.9391 38.606L27.9417 38.6119C28.5303 39.9427 28.9906 41.0313 28.9906 42.1425C28.9906 44.7268 27.2591 46.8541 24.9494 46.9519C24.6216 46.9613 24.3095 46.9701 23.9906 46.9701C11.2957 46.9701 1 36.6804 1 23.985C1 11.2899 11.2954 1 24 1C36.7046 1 47 11.2899 47 23.985V23.9855V23.986V23.9865V23.987V23.9875V23.988V23.9885V23.989V23.9895V23.99V23.9905V23.991V23.9915V23.992V23.9924V23.9929V23.9934V23.9939V23.9944V23.9949V23.9954V23.9959V23.9964V23.9969V23.9974V23.9979V23.9984V23.9989V23.9994V23.9999V24.0004V24.0008V24.0013V24.0018V24.0023V24.0028V24.0033V24.0038V24.0043V24.0048V24.0053V24.0058V24.0063V24.0068V24.0073V24.0078V24.0083V24.0088V24.0092V24.0097V24.0102V24.0107V24.0112V24.0117V24.0122V24.0127V24.0132V24.0137V24.0142V24.0147V24.0152V24.0157V24.0162V24.0167V24.0172V24.0176V24.0181V24.0186V24.0191V24.0196V24.0201V24.0206V24.0211V24.0216V24.0221V24.0226V24.0231V24.0236V24.0241V24.0246V24.0251V24.0256V24.026V24.0265V24.027V24.0275V24.028V24.0285V24.029V24.0295V24.03V24.0305V24.031V24.0315V24.032V24.0325V24.033V24.0335V24.034V24.0344V24.0349V24.0354V24.0359V24.0364V24.0369V24.0374V24.0379V24.0384V24.0389V24.0394V24.0399V24.0404V24.0409V24.0414V24.0419V24.0423V24.0428V24.0433V24.0438V24.0443V24.0448V24.0453V24.0458V24.0463V24.0468V24.0473V24.0478V24.0483V24.0488V24.0493V24.0498V24.0503V24.0507V24.0512V24.0517V24.0522V24.0527V24.0532V24.0537V24.0542V24.0547V24.0552V24.0557V24.0562V24.0567V24.0572V24.0577V24.0582V24.0587V24.0591V24.0596V24.0601V24.0606V24.0611V24.0616V24.0621V24.0626V24.0631V24.0636V24.0641V24.0646V24.0651V24.0656V24.0661V24.0666V24.0671V24.0675V24.068V24.0685V24.069V24.0695V24.07V24.0705V24.071V24.0715V24.072V24.0725V24.073V24.0735V24.074V24.0745V24.075V24.0755V24.0759V24.0764V24.0769V24.0774V24.0779V24.0784V24.0789V24.0794V24.0799V24.0804V24.0809V24.0814V24.0819V24.0824V24.0829V24.0834V24.0839V24.0843V24.0848V24.0853V24.0858V24.0863V24.0868V24.0873V24.0878V24.0883V24.0888V24.0893V24.0898V24.0903V24.0908V24.0913V24.0918V24.0923V24.0927V24.0932V24.0937V24.0942V24.0947V24.0952V24.0957V24.0962V24.0967V24.0972V24.0977V24.0982V24.0987V24.0992V24.0997V24.1002V24.1007V24.1011V24.1016V24.1021V24.1026V24.1031V24.1036V24.1041V24.1046V24.1051V24.1056V24.1061V24.1066V24.1071V24.1076V24.1081V24.1086V24.1091V24.1095V24.11V24.1105V24.111V24.1115V24.112V24.1125V24.113V24.1135V24.114V24.1145V24.115V24.1155V24.116V24.1165V24.117V24.1174V24.1179V24.1184V24.1189V24.1194V24.1199V24.1204V24.1209V24.1214V24.1219V24.1224V24.1229V24.1234V24.1239V24.1244V24.1249V24.1254V24.1258V24.1263V24.1268V24.1273V24.1278V24.1283V24.1288V24.1293V24.1298V24.1303V24.1308V24.1313V24.1318V24.1323V24.1328V24.1333V24.1338V24.1342V24.1347V24.1352V24.1357V24.1362V24.1367V24.1372V24.1377V24.1382V24.1387V24.1392V24.1397V24.1402V24.1407V24.1412V24.1417V24.1422V24.1426V24.1431V24.1436V24.1441V24.1446V24.1451V24.1456V24.1461V24.1466V24.1471V24.1476V24.1481V24.1486V24.1491V24.1496V24.1501V24.1506V24.151V24.1515V24.152V24.1525V24.153V24.1535V24.154V24.1545V24.155V24.1555V24.156V24.1565V24.157V24.1575V24.158V24.1585V24.159V24.1594V24.1599V24.1604V24.1609V24.1614V24.1619V24.1624V24.1629V24.1634V24.1639V24.1644V24.1649V24.1654V24.1659V24.1664V24.1669V24.1674V24.1678V24.1683V24.1688V24.1693V24.1698V24.1703V24.1708V24.1713V24.1718V24.1723V24.1728V24.1733V24.1738V24.1743V24.1748V24.1753V24.1758V24.1762V24.1767V24.1772V24.1777V24.1782V24.1787V24.1792V24.1797V24.1802V24.1807V24.1812V24.1817V24.1822V24.1827V24.1832V24.1837V24.1842V24.1846V24.1851V24.1856V24.1861V24.1866V24.1871V24.1876V24.1881V24.1886V24.1891V24.1896V24.1901V24.1906V24.1911V24.1916V24.1921V24.1926V24.193V24.1935V24.194V24.1945V24.195V24.1955V24.196V24.1965V24.197V24.1975V24.198V24.1985V24.199V24.1995V24.2V24.2005V24.2009V24.2014V24.2019V24.2024V24.2029V24.2034V24.2039V24.2044V24.2049V24.2054V24.2059V24.2064V24.2069V24.2074V24.2079V24.2084V24.2089V24.2093V24.2098V24.2103V24.2108V24.2113V24.2118V24.2123V24.2128V24.2133V24.2138V24.2143V24.2148V24.2153V24.2158V24.2163V24.2168V24.2173V24.2177V24.2182V24.2187V24.2192V24.2197V24.2202V24.2207V24.2212V24.2217V24.2222V24.2227V24.2232V24.2237V24.2242V24.2247V24.2252V24.2257V24.2261V24.2266V24.2271V24.2276V24.2281V24.2286V24.2291V24.2296V24.2301V24.2306V24.2311V24.2316V24.2321V24.2323C46.967 26.9484 44.4669 28.9813 41.4281 28.9813H32.25C29.2139 28.9813 26.75 31.4428 26.75 34.4785C26.75 34.8751 26.7967 35.2481 26.8609 35.5904ZM11.8282 24.1558L11.1213 24.8632L11.8282 24.1558C11.078 23.4061 10.0607 22.985 9 22.985C7.93933 22.985 6.92199 23.4061 6.17179 24.1558C5.42158 24.9056 5 25.9226 5 26.9832C5 28.0437 5.42158 29.0607 6.17179 29.8105C6.92199 30.5602 7.93933 30.9813 9 30.9813C10.0607 30.9813 11.078 30.5602 11.8282 29.8105C12.5784 29.0607 13 28.0437 13 26.9832C13 25.9226 12.5784 24.9056 11.8282 24.1558ZM12 18.9888C13.0607 18.9888 14.078 18.5677 14.8282 17.818C15.5784 17.0682 16 16.0512 16 14.9906C16 13.9301 15.5784 12.9131 14.8282 12.1633C14.078 11.4136 13.0607 10.9925 12 10.9925C10.9393 10.9925 9.92199 11.4136 9.17179 12.1633C8.42158 12.9131 8 13.9301 8 14.9906C8 16.0512 8.42158 17.0682 9.17179 17.818C9.92199 18.5677 10.9393 18.9888 12 18.9888ZM28 8.99439C28 7.93382 27.5784 6.91681 26.8282 6.16706C26.078 5.41734 25.0607 4.99626 24 4.99626C22.9393 4.99626 21.922 5.41734 21.1718 6.16706C20.4216 6.91681 20 7.93382 20 8.99439C20 10.055 20.4216 11.072 21.1718 11.8217C21.922 12.5714 22.9393 12.9925 24 12.9925C25.0607 12.9925 26.078 12.5714 26.8282 11.8217C27.5784 11.072 28 10.055 28 8.99439ZM36 18.9888C37.0607 18.9888 38.078 18.5677 38.8282 17.818C39.5784 17.0682 40 16.0512 40 14.9906C40 13.9301 39.5784 12.9131 38.8282 12.1633C38.078 11.4136 37.0607 10.9925 36 10.9925C34.9393 10.9925 33.922 11.4136 33.1718 12.1633C32.4216 12.9131 32 13.9301 32 14.9906C32 16.0512 32.4216 17.0682 33.1718 17.818C33.922 18.5677 34.9393 18.9888 36 18.9888Z" fill="#D5F131" stroke="black" stroke-width="2"/>
</g>
<defs>
<clipPath id="clip0_145_909">
<rect width="48" height="48" fill="white"/>
</clipPath>
</defs>
</svg>
