<svg width="56" height="48" viewBox="0 0 56 48" fill="none" xmlns="http://www.w3.org/2000/svg">
<path d="M26.1222 1.40104L26.123 1.40069C27.3121 0.86969 28.6878 0.86969 29.877 1.4007L29.8777 1.40104L51.1305 10.8698L51.1329 10.8708C51.607 11.0806 51.8889 11.5251 51.8889 12.0001C51.8889 12.475 51.607 12.9196 51.1329 13.1294L51.1305 13.1304L29.8777 22.5992L29.877 22.5995C28.6878 23.1305 27.3121 23.1305 26.123 22.5995L26.1222 22.5992L4.8757 13.1332C4.87478 13.1328 4.87386 13.1324 4.87294 13.132C4.38901 12.9111 4.11108 12.4609 4.11108 12.0001C4.11108 11.5321 4.39516 11.0796 4.86708 10.8708L4.86944 10.8698L26.1222 1.40104ZM51.1302 22.8697L51.1329 22.8708C51.607 23.0806 51.8889 23.5251 51.8889 24.0001C51.8889 24.475 51.607 24.9196 51.1329 25.1294L51.1305 25.1304L29.8777 34.5992L29.877 34.5995C28.6878 35.1305 27.3121 35.1305 26.123 34.5995L26.1222 34.5992L4.8757 25.1332C4.87484 25.1328 4.87398 25.1324 4.87312 25.132C4.38908 24.9112 4.11108 24.4609 4.11108 24.0001C4.11108 23.5321 4.39516 23.0796 4.86708 22.8708L4.86971 22.8697L9.63494 20.7449L24.0056 27.1449L24.0059 27.145C26.5397 28.2726 29.4602 28.2726 31.9941 27.145L31.9943 27.1449L46.365 20.7449L51.1302 22.8697ZM31.9941 39.145L31.9943 39.1449L46.365 32.7449L51.1302 34.8697L51.1329 34.8708C51.607 35.0806 51.8889 35.5252 51.8889 36.0001C51.8889 36.475 51.607 36.9196 51.1329 37.1294L51.1305 37.1304L29.8777 46.5992L29.877 46.5995C28.6878 47.1305 27.3121 47.1305 26.123 46.5995L26.1222 46.5992L4.8757 37.1332C4.87478 37.1328 4.87386 37.1324 4.87294 37.132C4.38901 36.9111 4.11108 36.4609 4.11108 36.0001C4.11108 35.5321 4.39516 35.0796 4.86708 34.8708L4.86971 34.8697L9.63494 32.7449L24.0056 39.1449L24.0059 39.145C26.5397 40.2726 29.4602 40.2726 31.9941 39.145Z" fill="#D5F131" stroke="black" stroke-width="2"/>
</svg>
