<svg width="48" height="48" viewBox="0 0 48 48" fill="none" xmlns="http://www.w3.org/2000/svg">
<path d="M8.16821 23.9345L8.16899 23.931C8.74248 21.3763 10.2031 18.9938 12.4019 17.0933C14.6018 15.1919 17.4367 13.8641 20.5594 13.2962C22.9435 12.8721 25.4107 12.8999 27.7799 13.3772C30.1488 13.8545 32.3522 14.7675 34.2328 16.042C36.0858 17.3146 37.5637 18.9087 38.5718 20.6995C39.5795 22.4897 40.0952 24.4359 40.0918 26.3982L40.0918 26.4041C40.1043 29.4023 38.8727 32.3391 36.5602 34.7002L36.5602 34.7002L36.5505 34.7103C35.1766 36.1531 34.4002 37.9762 34.3946 39.885V39.8879V43.1999C34.3946 44.147 33.9494 45.0982 33.0816 45.8293C32.2087 46.5647 30.9933 46.9999 29.6974 46.9999H18.3029C17.007 46.9999 15.7916 46.5647 14.9187 45.8293C14.0509 45.0982 13.6057 44.147 13.6057 43.1999V39.8879V39.8796L13.6055 39.8713C13.5733 37.9346 12.7663 36.0915 11.3606 34.6345C9.92091 33.134 8.89898 31.3994 8.35209 29.5563C7.80541 27.714 7.74313 25.7969 8.16821 23.9345Z" fill="#D5F131" stroke="black" stroke-width="2"/>
<path d="M41.6302 12.501L41.6248 12.4964C41.2819 12.2021 41.1273 11.8412 41.1273 11.5053C41.1273 11.1695 41.2819 10.8085 41.6248 10.5143L41.6279 10.5116L43.66 8.75377C43.6607 8.75314 43.6615 8.7525 43.6622 8.75187C43.835 8.60503 44.0479 8.48182 44.2923 8.39551C44.5376 8.30883 44.8049 8.26289 45.0776 8.26289C45.3502 8.26289 45.6175 8.30883 45.8628 8.39551C46.1082 8.4822 46.322 8.6061 46.4951 8.75377C46.668 8.90122 46.7951 9.06759 46.878 9.23839C46.9606 9.40844 47 9.58354 47 9.75532C47 9.9271 46.9606 10.1022 46.878 10.2723C46.7954 10.4423 46.6692 10.6079 46.4975 10.7549C46.4967 10.7555 46.4959 10.7562 46.4951 10.7569L44.434 12.4899L44.4275 12.4954L44.4211 12.5009C44.25 12.6498 44.0376 12.7753 43.7928 12.8635C43.5504 12.9509 43.2858 12.9981 43.0154 13C42.468 12.9916 41.9726 12.799 41.6302 12.501ZM4.57886 12.5009L4.57249 12.4954L4.56602 12.4899L2.50252 10.7549C2.15628 10.4585 2 10.0943 2 9.75532C2 9.41553 2.15699 9.05047 2.50487 8.75377C2.85764 8.45292 3.3657 8.26289 3.92245 8.26289C4.47793 8.26289 4.98495 8.45205 5.33761 8.75172L7.3721 10.5116L7.37209 10.5116L7.37518 10.5143C7.71815 10.8085 7.87269 11.1695 7.87269 11.5053C7.87269 11.8412 7.71815 12.2021 7.37518 12.4964L7.37516 12.4963L7.36981 12.501C7.02739 12.799 6.53199 12.9916 5.98461 13C5.71417 12.9981 5.44966 12.9509 5.20721 12.8635C4.96239 12.7753 4.74999 12.6498 4.57886 12.5009ZM24.5 6.44681C23.9464 6.44681 23.4414 6.25785 23.0908 5.9589C22.7452 5.66411 22.5895 5.30163 22.5895 4.96454V2.48227C22.5895 2.14517 22.7452 1.7827 23.0908 1.48791C23.4414 1.18895 23.9464 1 24.5 1C25.0536 1 25.5586 1.18895 25.9092 1.48791C26.2548 1.7827 26.4105 2.14517 26.4105 2.48227V4.96454C26.4105 5.30163 26.2548 5.66411 25.9092 5.9589C25.5586 6.25785 25.0536 6.44681 24.5 6.44681Z" fill="#D5F131" stroke="black" stroke-width="2"/>
</svg>
