<svg width="54" height="48" viewBox="0 0 54 48" fill="none" xmlns="http://www.w3.org/2000/svg">
<path d="M34.9998 38.286L33.2522 40H35.7H51C52.1071 40 53 40.8929 53 42C53 43.1071 52.1071 44 51 44H21C9.95541 44 1 35.0446 1 24C1 12.9554 9.95541 4 21 4C32.0446 4 41 12.9554 41 24C41 29.5986 38.7066 34.6507 34.9998 38.286ZM28.0711 16.9289C26.1957 15.0536 23.6522 14 21 14C18.3478 14 15.8043 15.0536 13.9289 16.9289C12.0536 18.8043 11 21.3478 11 24C11 26.6522 12.0536 29.1957 13.9289 31.0711C15.8043 32.9464 18.3478 34 21 34C23.6522 34 26.1957 32.9464 28.0711 31.0711C29.9464 29.1957 31 26.6522 31 24C31 21.3478 29.9464 18.8043 28.0711 16.9289ZM24.5355 20.4645C25.4732 21.4021 26 22.6739 26 24C26 25.3261 25.4732 26.5979 24.5355 27.5355C23.5979 28.4732 22.3261 29 21 29C19.6739 29 18.4021 28.4732 17.4645 27.5355C16.5268 26.5979 16 25.3261 16 24C16 22.6739 16.5268 21.4021 17.4645 20.4645C18.4021 19.5268 19.6739 19 21 19C22.3261 19 23.5979 19.5268 24.5355 20.4645Z" fill="#D5F131" stroke="black" stroke-width="2"/>
</svg>
