<svg width="195" height="70" viewBox="0 0 195 70" fill="none" xmlns="http://www.w3.org/2000/svg">
<g clip-path="url(#clip0_428_243)">
<path d="M21.3849 8.75H0V59.7917L21.3849 8.75Z" fill="#FA0C00"/>
<path d="M36.4313 8.75H57.7883V59.7917L36.4313 8.75Z" fill="#FA0C00"/>
<path d="M28.9083 27.5622L42.5194 59.7917H33.5893L29.5212 49.5305H19.5602L28.9083 27.5622Z" fill="#FA0C00"/>
<path d="M92.6758 41.2092L95.1974 48.4254C95.281 48.6062 95.4063 48.6896 95.6292 48.6896H100.477C100.742 48.6896 100.784 48.5645 100.742 48.3003L90.7253 20.5339C90.6835 20.3115 90.6417 20.2698 90.4188 20.2698H84.4004C84.2332 20.2698 84.1357 20.3949 84.1357 20.5756C84.0521 22.0356 83.9267 22.4805 83.7456 22.9115L74.8155 48.2586C74.7737 48.5645 74.8713 48.6896 75.122 48.6896H79.4547C79.7194 48.6896 79.8448 48.6062 79.9423 48.342L82.3246 41.2092H92.6758ZM83.7038 36.4958C85.0134 32.547 86.7409 27.486 87.4375 24.5939H87.4793C88.343 27.625 90.377 33.6315 91.2965 36.4958H83.7038Z" fill="#FA0C00"/>
<path d="M113.62 49.1206C116.225 49.1206 118.997 48.6479 121.811 47.4382C122.034 47.3548 122.076 47.2575 122.076 47.0489C121.993 46.2703 121.895 45.1441 121.895 44.282V18.1424C121.895 17.9756 121.895 17.8922 121.686 17.8922H116.963C116.782 17.8922 116.699 17.9756 116.699 18.1981V27.0549C115.96 26.9715 115.445 26.9298 114.832 26.9298C107.211 26.9298 102.53 31.9491 102.53 38.2199C102.53 45.4917 107.337 49.1206 113.62 49.1206ZM116.699 44.282C115.918 44.5323 115.055 44.6296 114.177 44.6296C110.722 44.6296 107.894 42.683 107.894 37.9557C107.894 33.7706 110.805 31.2956 114.665 31.2956C115.445 31.2956 116.127 31.3791 116.699 31.6015V44.282Z" fill="#FA0C00"/>
<path d="M137.142 26.9298C130.636 26.9298 126.61 31.9074 126.61 38.053C126.61 43.5451 129.814 49.1206 137.045 49.1206C143.161 49.1206 147.452 44.6296 147.452 37.914C147.452 31.9909 143.816 26.9298 137.142 26.9298ZM136.878 31.2957C140.556 31.2957 142.116 34.4519 142.116 38.053C142.116 42.5023 139.817 44.713 137.142 44.713C133.841 44.713 131.89 41.9461 131.89 37.9557C131.89 33.854 133.966 31.2957 136.878 31.2957Z" fill="#FA0C00"/>
<path d="M152.335 17.8922C152.153 17.8922 152.028 17.9756 152.028 18.1981V47.7858C152.028 47.911 152.153 48.1334 152.335 48.1751C154.41 48.8147 156.584 49.1206 158.827 49.1206C165.249 49.1206 171.49 45.1441 171.49 37.1353C171.49 31.3374 167.506 26.9298 161.265 26.9298C159.83 26.9298 158.492 27.1523 157.322 27.5416L157.266 18.2398C157.266 17.9339 157.183 17.8922 156.876 17.8922H152.335ZM166.155 37.6637C166.155 42.4606 162.867 44.713 159.314 44.713C158.576 44.713 157.921 44.6713 157.322 44.4906V31.8657C158.005 31.6015 158.827 31.3791 160.345 31.3791C163.772 31.3791 166.155 33.5481 166.155 37.6637Z" fill="#FA0C00"/>
<path d="M189.116 39.221C191.233 39.221 192.975 39.1792 193.574 39.0402C193.797 38.9985 193.88 38.9151 193.922 38.7343C194.048 38.2616 194.103 37.2744 194.103 36.0647C194.103 31.9492 191.623 26.9298 185.215 26.9298C178.667 26.9298 175.031 32.255 175.031 38.2616C175.031 43.5868 177.845 49.1206 185.73 49.1206C188.684 49.1206 190.593 48.6479 192.236 47.8693C192.404 47.7858 192.487 47.6468 192.487 47.3965V43.7954C192.487 43.5868 192.362 43.5451 192.236 43.6285C190.593 44.3237 188.809 44.6713 186.859 44.6713C182.443 44.6713 180.436 42.2381 180.311 39.221H189.116ZM180.311 35.4947C180.659 33.3813 181.997 31.0871 184.992 31.0871C188.294 31.0871 189.158 33.854 189.158 35.1054C189.158 35.1471 189.158 35.3278 189.158 35.453C188.976 35.4947 188.419 35.4947 186.775 35.4947H180.311Z" fill="#FA0C00"/>
</g>
<defs>
<clipPath id="clip0_428_243">
<rect width="194.342" height="70" fill="white"/>
</clipPath>
</defs>
</svg>
