<svg width="188" height="60" viewBox="0 0 188 60" fill="none" xmlns="http://www.w3.org/2000/svg">
<path d="M99.5061 15.4898C99.5061 17.5919 97.8127 19.2853 95.7106 19.2853C93.6085 19.2853 91.9152 17.5919 91.9152 15.4898C91.9152 13.3877 93.5501 11.6944 95.7106 11.6944C97.8711 11.7527 99.5061 13.4461 99.5061 15.4898ZM83.8571 23.1391C83.8571 23.4895 83.8571 24.0734 83.8571 24.0734C83.8571 24.0734 82.047 21.7377 78.1931 21.7377C71.8284 21.7377 66.8651 26.5842 66.8651 33.2993C66.8651 39.9559 71.77 44.8608 78.1931 44.8608C82.1054 44.8608 83.8571 42.4668 83.8571 42.4668V43.4594C83.8571 43.9266 84.2075 44.2769 84.6746 44.2769H89.4043V22.3216C89.4043 22.3216 85.0833 22.3216 84.6746 22.3216C84.2075 22.3216 83.8571 22.7304 83.8571 23.1391ZM83.8571 37.2115C82.9812 38.4961 81.2295 39.6056 79.1274 39.6056C75.3903 39.6056 72.5291 37.2699 72.5291 33.2993C72.5291 29.3286 75.3903 26.993 79.1274 26.993C81.1711 26.993 83.0396 28.1608 83.8571 29.387V37.2115ZM92.9078 22.3216H98.5134V44.2769H92.9078V22.3216ZM176.642 21.7377C172.788 21.7377 170.978 24.0734 170.978 24.0734V11.7527H165.372V44.2769C165.372 44.2769 169.693 44.2769 170.102 44.2769C170.569 44.2769 170.919 43.8682 170.919 43.4594V42.4668C170.919 42.4668 172.729 44.8608 176.583 44.8608C182.948 44.8608 187.911 39.9559 187.911 33.2993C187.911 26.6426 182.948 21.7377 176.642 21.7377ZM175.707 39.5472C173.547 39.5472 171.853 38.4378 170.978 37.1531V29.3286C171.853 28.1608 173.722 26.9346 175.707 26.9346C179.444 26.9346 182.306 29.2703 182.306 33.2409C182.306 37.2115 179.444 39.5472 175.707 39.5472ZM162.452 31.2556V44.3353H156.847V31.8979C156.847 28.2776 155.679 26.8178 152.526 26.8178C150.832 26.8178 149.081 27.6937 147.971 28.9783V44.2769H142.366V22.3216H146.803C147.271 22.3216 147.621 22.7304 147.621 23.1391V24.0734C149.256 22.38 151.416 21.7377 153.577 21.7377C156.029 21.7377 158.073 22.4384 159.708 23.8398C161.693 25.4748 162.452 27.5769 162.452 31.2556ZM128.76 21.7377C124.907 21.7377 123.096 24.0734 123.096 24.0734V11.7527H117.491V44.2769C117.491 44.2769 121.812 44.2769 122.22 44.2769C122.688 44.2769 123.038 43.8682 123.038 43.4594V42.4668C123.038 42.4668 124.848 44.8608 128.702 44.8608C135.067 44.8608 140.03 39.9559 140.03 33.2993C140.088 26.6426 135.125 21.7377 128.76 21.7377ZM127.826 39.5472C125.666 39.5472 123.972 38.4378 123.096 37.1531V29.3286C123.972 28.1608 125.841 26.9346 127.826 26.9346C131.563 26.9346 134.424 29.2703 134.424 33.2409C134.424 37.2115 131.563 39.5472 127.826 39.5472ZM112.644 21.7377C114.338 21.7377 115.213 22.0297 115.213 22.0297V27.2265C115.213 27.2265 110.542 25.65 107.623 28.9783V44.3353H102.017V22.3216C102.017 22.3216 106.338 22.3216 106.747 22.3216C107.214 22.3216 107.564 22.7304 107.564 23.1391V24.0734C108.615 22.8472 110.892 21.7377 112.644 21.7377ZM54.4277 42.2916C54.1357 41.5909 53.8438 40.8318 53.5518 40.1895C53.0847 39.1385 52.6175 38.1458 52.2088 37.2115L52.1504 37.1531C48.1214 28.3944 43.8004 19.5188 39.2458 10.7601L39.0707 10.4097C38.6035 9.53386 38.1364 8.59959 37.6693 7.66533C37.0853 6.61427 36.5014 5.50483 35.5672 4.45378C33.6986 2.11811 31.0126 0.833496 28.1514 0.833496C25.2318 0.833496 22.6042 2.11811 20.6773 4.337C19.8014 5.38805 19.1591 6.49749 18.5752 7.54854C18.108 8.48281 17.6409 9.41708 17.1738 10.293L16.9986 10.6433C12.5024 19.4021 8.12304 28.2776 4.09401 37.0364L4.03562 37.1531C3.62688 38.0874 3.15974 39.0801 2.69261 40.1311C2.40065 40.7734 2.10869 41.4741 1.81673 42.2332C1.05764 44.3937 0.824076 46.4374 1.11603 48.5395C1.75834 52.9189 4.67793 56.5976 8.70696 58.2325C10.2251 58.8748 11.8017 59.1668 13.4367 59.1668C13.9038 59.1668 14.4877 59.1084 14.9549 59.05C16.8818 58.8165 18.8671 58.1741 20.794 57.0647C23.1881 55.7217 25.4654 53.7948 28.0346 50.992C30.6039 53.7948 32.9395 55.7217 35.2752 57.0647C37.2021 58.1741 39.1874 58.8165 41.1144 59.05C41.5815 59.1084 42.1654 59.1668 42.6326 59.1668C44.2675 59.1668 45.9025 58.8748 47.3623 58.2325C51.4497 56.5976 54.3109 52.8605 54.9532 48.5395C55.4203 46.4958 55.1868 44.4521 54.4277 42.2916ZM28.093 45.328C24.9399 41.3573 22.8962 37.6203 22.1955 34.4671C21.9035 33.1241 21.8451 31.9563 22.0203 30.9052C22.1371 29.971 22.4874 29.1535 22.9545 28.4528C24.064 26.8762 25.9325 25.8835 28.093 25.8835C30.2535 25.8835 32.1804 26.8178 33.2315 28.4528C33.6986 29.1535 34.049 29.971 34.1658 30.9052C34.3409 31.9563 34.2825 33.1825 33.9906 34.4671C33.2899 37.5619 31.2462 41.2989 28.093 45.328ZM51.3913 48.0724C50.9826 51.1088 48.9389 53.7364 46.0777 54.9042C44.6763 55.4881 43.1581 55.6633 41.6399 55.4881C40.1801 55.313 38.7203 54.8458 37.2021 53.9699C35.1 52.8021 32.9979 50.992 30.5455 48.306C34.3993 43.5762 36.735 39.2552 37.6109 35.4014C38.0196 33.5912 38.078 31.9563 37.9028 30.4381C37.6693 28.9783 37.1437 27.6353 36.3262 26.4675C34.5161 23.8398 31.4797 22.3216 28.093 22.3216C24.7063 22.3216 21.6699 23.8982 19.8598 26.4675C19.0423 27.6353 18.5168 28.9783 18.2832 30.4381C18.0496 31.9563 18.108 33.6496 18.5752 35.4014C19.451 39.2552 21.8451 43.6346 25.6406 48.3643C23.2465 51.0504 21.086 52.8605 18.9839 54.0283C17.4657 54.9042 16.0059 55.3713 14.5461 55.5465C12.9696 55.7217 11.4514 55.4881 10.1084 54.9626C7.24717 53.7948 5.20346 51.1671 4.79471 48.1308C4.61954 46.671 4.73632 45.2112 5.32024 43.5762C5.49541 42.9923 5.78737 42.4084 6.07933 41.7077C6.48807 40.7734 6.95521 39.7808 7.42234 38.7881L7.48073 38.6713C11.5098 29.971 15.8308 21.0954 20.3269 12.4534L20.5021 12.1031C20.9692 11.2272 21.4364 10.293 21.9035 9.41708C22.3706 8.48281 22.8962 7.60693 23.5385 6.84784C24.7647 5.44644 26.3997 4.68735 28.2098 4.68735C30.0199 4.68735 31.6549 5.44644 32.8811 6.84784C33.5234 7.60693 34.049 8.48281 34.5161 9.41708C34.9832 10.293 35.4504 11.2272 35.9175 12.1031L36.0927 12.4534C40.5305 21.1538 44.8514 30.0293 48.8805 38.7297V38.7881C49.3476 39.7224 49.7563 40.7734 50.2235 41.7077C50.5154 42.4084 50.8074 42.9923 50.9826 43.5762C51.4497 45.0944 51.6249 46.5542 51.3913 48.0724Z" fill="#FF5A5F"/>
</svg>
