<svg width="161" height="70" viewBox="0 0 161 70" fill="none" xmlns="http://www.w3.org/2000/svg">
<path fill-rule="evenodd" clip-rule="evenodd" d="M99.0719 55.135C89.7917 61.9752 76.3406 65.6247 64.7595 65.6247C48.5208 65.6247 33.9019 59.6187 22.8421 49.6294C21.9732 48.8439 22.7517 47.7734 23.7945 48.3851C35.7301 55.3296 50.4881 59.5075 65.7327 59.5075C76.0139 59.5075 87.3239 57.3803 97.7233 52.9661C99.2944 52.2988 100.608 53.9949 99.0719 55.135Z" fill="#FF9900"/>
<path fill-rule="evenodd" clip-rule="evenodd" d="M102.93 50.7209C101.748 49.2054 95.0889 50.0049 92.0997 50.3594C91.1891 50.4706 91.0501 49.6781 91.8703 49.1081C97.1743 45.3752 105.877 46.4527 106.892 47.7039C107.907 48.9621 106.628 57.6862 101.644 61.8502C100.879 62.4897 100.15 62.1491 100.49 61.301C101.609 58.5065 104.119 52.2432 102.93 50.7209Z" fill="#FF9900"/>
<path fill-rule="evenodd" clip-rule="evenodd" d="M92.3086 22.7553V19.1266C92.3086 18.5775 92.7257 18.2091 93.2262 18.2091H109.472C109.993 18.2091 110.41 18.5844 110.41 19.1266V22.2339C110.403 22.7553 109.965 23.4365 109.187 24.514L100.768 36.5331C103.897 36.4566 107.199 36.9224 110.035 38.5212C110.674 38.8827 110.848 39.411 110.897 39.9324V43.8043C110.897 44.3326 110.313 44.9513 109.701 44.6315C104.703 42.0108 98.0644 41.7258 92.538 44.6594C91.9749 44.9652 91.384 44.3535 91.384 43.8252V40.1479C91.384 39.557 91.391 38.549 91.9818 37.6523L101.735 23.6659H93.247C92.7257 23.6659 92.3086 23.2975 92.3086 22.7553Z" fill="black"/>
<path fill-rule="evenodd" clip-rule="evenodd" d="M33.0473 45.3962H28.1048C27.6321 45.3615 27.2567 45.007 27.222 44.5551V19.1893C27.222 18.6818 27.646 18.2786 28.1743 18.2786H32.7832C33.2628 18.2995 33.6451 18.6679 33.6799 19.1267V22.4425H33.7703C34.9729 19.2379 37.2321 17.7434 40.2768 17.7434C43.3702 17.7434 45.3027 19.2379 46.693 22.4425C47.8887 19.2379 50.6067 17.7434 53.5194 17.7434C55.5909 17.7434 57.8571 18.5984 59.2404 20.517C60.8045 22.6511 60.4847 25.7514 60.4847 28.4695L60.4778 44.4787C60.4778 44.9861 60.0537 45.3962 59.5254 45.3962H54.5899C54.0963 45.3615 53.7001 44.9653 53.7001 44.4787V31.0345C53.7001 29.964 53.7974 27.2947 53.5611 26.2797C53.1927 24.5766 52.0874 24.097 50.6554 24.097C49.4597 24.097 48.2085 24.8964 47.701 26.1755C47.1935 27.4545 47.2422 29.5956 47.2422 31.0345V44.4787C47.2422 44.9861 46.8182 45.3962 46.2898 45.3962H41.3543C40.8538 45.3615 40.4645 44.9653 40.4645 44.4787L40.4576 31.0345C40.4576 28.2053 40.9233 24.0414 37.4128 24.0414C33.8606 24.0414 33.9997 28.101 33.9997 31.0345V44.4787C33.9997 44.9861 33.5756 45.3962 33.0473 45.3962Z" fill="black"/>
<path fill-rule="evenodd" clip-rule="evenodd" d="M124.396 17.7434C131.73 17.7434 135.699 24.0414 135.699 32.0495C135.699 39.7864 131.313 45.9246 124.396 45.9246C117.195 45.9246 113.274 39.6265 113.274 31.7783C113.274 23.8815 117.243 17.7434 124.396 17.7434ZM124.438 22.9222C120.795 22.9222 120.566 27.8855 120.566 30.9789C120.566 34.0793 120.517 40.6971 124.396 40.6971C128.227 40.6971 128.407 35.3584 128.407 32.1051C128.407 29.964 128.317 27.4059 127.67 25.3761C127.114 23.6104 126.009 22.9222 124.438 22.9222Z" fill="black"/>
<path fill-rule="evenodd" clip-rule="evenodd" d="M145.209 45.3962H140.288C139.794 45.3615 139.398 44.9653 139.398 44.4787L139.391 19.1058C139.433 18.6401 139.843 18.2786 140.343 18.2786H144.924C145.355 18.2995 145.71 18.5914 145.807 18.9877V22.8666H145.897C147.281 19.3978 149.22 17.7434 152.633 17.7434C154.851 17.7434 157.013 18.5428 158.403 20.7325C159.696 22.7623 159.696 26.1755 159.696 28.6293V44.5968C159.64 45.0417 159.23 45.3962 158.744 45.3962H153.787C153.335 45.3615 152.96 45.0278 152.911 44.5968V30.819C152.911 28.0454 153.231 23.9858 149.818 23.9858C148.615 23.9858 147.51 24.7921 146.961 26.0156C146.266 27.5658 146.175 29.109 146.175 30.819V44.4787C146.168 44.9861 145.737 45.3962 145.209 45.3962Z" fill="black"/>
<path fill-rule="evenodd" clip-rule="evenodd" d="M79.358 33.2798C79.358 35.2054 79.4067 36.8112 78.4335 38.5212C77.648 39.9115 76.3967 40.7665 75.0134 40.7665C73.1156 40.7665 72.0034 39.3206 72.0034 37.1865C72.0034 32.974 75.778 32.2093 79.358 32.2093V33.2798ZM84.3422 45.3267C84.0155 45.6187 83.5428 45.6395 83.1744 45.4449C81.5338 44.0824 81.2349 43.4498 80.3382 42.1499C77.6271 44.9166 75.7016 45.7438 72.1911 45.7438C68.0271 45.7438 64.7947 43.1787 64.7947 38.0416C64.7947 34.0306 66.9636 31.2987 70.0639 29.964C72.7472 28.7822 76.494 28.5737 79.358 28.247V27.6074C79.358 26.4326 79.4484 25.0423 78.7533 24.0274C78.1554 23.1168 77.0015 22.7414 75.9796 22.7414C74.0958 22.7414 72.4205 23.7077 72.0103 25.7097C71.9269 26.1546 71.6002 26.5925 71.1484 26.6134L66.3588 26.099C65.9556 26.0086 65.5038 25.6819 65.6219 25.0632C66.7203 19.2518 71.9756 17.5 76.6748 17.5C79.08 17.5 82.222 18.1395 84.1198 19.9608C86.525 22.2061 86.2956 25.2022 86.2956 28.4625V36.1647C86.2956 38.4795 87.2549 39.4944 88.1586 40.7457C88.4714 41.1906 88.5409 41.7258 88.1377 42.0595C87.1297 42.9006 85.3363 44.4647 84.3492 45.3406L84.3422 45.3267Z" fill="black"/>
<path fill-rule="evenodd" clip-rule="evenodd" d="M14.5633 33.2798C14.5633 35.2054 14.612 36.8111 13.6388 38.5212C12.8532 39.9115 11.6089 40.7665 10.2186 40.7665C8.32089 40.7665 7.21561 39.3206 7.21561 37.1865C7.21561 32.9739 10.9903 32.2093 14.5633 32.2093V33.2798ZM19.5475 45.3267C19.2208 45.6186 18.7481 45.6395 18.3797 45.4449C16.7391 44.0824 16.4471 43.4498 15.5435 42.1499C12.8324 44.9165 10.9138 45.7438 7.39635 45.7438C3.23937 45.7438 0 43.1787 0 38.0416C0 34.0306 2.17581 31.2986 5.2692 29.964C7.95247 28.7822 11.6993 28.5737 14.5633 28.247V27.6074C14.5633 26.4326 14.6537 25.0423 13.9655 24.0274C13.3607 23.1168 12.2068 22.7414 11.1918 22.7414C9.308 22.7414 7.62575 23.7077 7.21561 25.7097C7.13219 26.1546 6.80548 26.5925 6.36058 26.6134L1.56408 26.099C1.16089 26.0086 0.715999 25.6819 0.827222 25.0632C1.9325 19.2518 7.18085 17.5 11.88 17.5C14.2852 17.5 17.4273 18.1395 19.325 19.9608C21.7303 22.2061 21.5009 25.2022 21.5009 28.4625V36.1647C21.5009 38.4795 22.4602 39.4944 23.3638 40.7457C23.6836 41.1906 23.7531 41.7258 23.3499 42.0595C22.342 42.9006 20.5485 44.4647 19.5614 45.3406L19.5475 45.3267Z" fill="black"/>
</svg>
