<svg width="236" height="43" viewBox="0 0 236 43" fill="none" xmlns="http://www.w3.org/2000/svg">
<path fill-rule="evenodd" clip-rule="evenodd" d="M38.6738 0.000845591H3.61711C1.61905 0.000845591 0 1.62028 0 3.61797V38.6747C0 40.6727 1.61944 42.2917 3.61711 42.2917H38.6738C40.6718 42.2917 42.2909 40.6723 42.2909 38.6747V3.61797C42.2909 1.61989 40.6714 0.000845591 38.6738 0.000845591ZM22.2217 23.3008C19.0602 23.3008 17.6235 20.2457 17.6235 17.4138C17.6235 12.9547 20.0396 11.3671 22.2997 11.3671C25.0733 11.3671 26.9369 13.7792 26.9369 17.3722C26.9369 21.4704 24.5662 23.3008 22.2217 23.3008ZM32.8935 17.2935C32.8935 10.6104 29.0821 6.12079 23.4134 6.12079C20.1155 6.12079 18.2064 7.61661 17.2854 8.64879C17.1749 7.75874 16.5942 6.6041 14.3255 6.6041H9.39799V11.8088H11.4175C11.7599 11.8088 11.8704 11.9181 11.8704 12.2637V36.0305H17.7427V27.1103C17.7427 26.8698 17.7383 26.6444 17.7319 26.4433C18.6484 27.2918 20.4015 28.4639 23.1382 28.4639C28.8783 28.4639 32.8935 23.8715 32.8935 17.2935Z" fill="#192435"/>
<path fill-rule="evenodd" clip-rule="evenodd" d="M57.8085 11.3891C58.8487 10.2242 61.0051 8.53612 64.7305 8.53612C71.1335 8.53612 75.439 13.6028 75.439 21.1449C75.439 28.5685 70.9034 33.7512 64.4195 33.7512C61.3282 33.7512 59.3481 32.4283 58.3127 31.4708C58.3201 31.6979 58.3249 31.952 58.3249 32.2235V42.2903H51.6918V15.4686C51.6918 15.0786 51.567 14.9553 51.1803 14.9553H48.8991V9.08154H54.465C57.0277 9.08154 57.6837 10.3846 57.8085 11.3891ZM63.4724 14.4567C60.9195 14.4567 58.1903 16.2485 58.1903 21.2806C58.1903 24.4766 59.8131 27.9244 63.3842 27.9244C66.0325 27.9244 68.7103 25.8587 68.7103 21.2338C68.7103 17.1789 66.6053 14.4567 63.4724 14.4567Z" fill="#192435"/>
<path d="M84.3467 26.8663V12.6533C84.3467 10.2519 83.1988 9.08214 80.8466 9.08214H74.9183V14.9558H77.202C77.5864 14.9558 77.7111 15.0818 77.7111 15.4693V29.6328C77.7111 32.0711 78.8223 33.204 81.2039 33.204H87.1395V27.3821H84.8558C84.4886 27.3821 84.3467 27.2339 84.3467 26.8663Z" fill="#192435"/>
<path fill-rule="evenodd" clip-rule="evenodd" d="M94.75 11.3891C95.7951 10.2242 97.9466 8.53612 101.677 8.53612C108.077 8.53612 112.38 13.6028 112.38 21.1449C112.38 28.5685 107.85 33.7512 101.363 33.7512C98.2746 33.7512 96.2871 32.4283 95.2567 31.4708C95.2639 31.6979 95.2713 31.952 95.2713 32.2235V42.2903H88.6333V15.4686C88.6333 15.0786 88.5085 14.9553 88.1242 14.9553H85.843V9.08154H91.4114C93.9741 9.08154 94.6276 10.3846 94.75 11.3891ZM95.1318 21.2806C95.1318 24.4766 96.762 27.9244 100.323 27.9244C102.979 27.9244 105.654 25.8587 105.654 21.2338C105.654 17.1789 103.549 14.4567 100.416 14.4567C97.861 14.4567 95.1318 16.2485 95.1318 21.2806Z" fill="#192435"/>
<path fill-rule="evenodd" clip-rule="evenodd" d="M112.719 21.1461C112.719 13.7224 117.717 8.53727 124.864 8.53727C131.238 8.53727 135.521 13.1474 135.521 20.0083C135.521 20.7043 135.391 22.1283 135.379 22.1875L135.343 22.6268H119.611C120.187 25.8352 122.62 27.881 125.944 27.881C129.288 27.881 131.848 25.6091 132.046 25.4336C132.053 25.4274 132.057 25.4238 132.058 25.423L132.486 25.0133L135.377 29.8481L135.11 30.1147C134.952 30.2684 131.382 33.7523 125.542 33.7523C118.111 33.7523 112.719 28.4488 112.719 21.1461ZM124.864 13.9544C122.377 13.9544 120.578 15.297 119.859 17.6638H128.67C128.398 15.487 126.861 13.9544 124.864 13.9544Z" fill="#192435"/>
<path fill-rule="evenodd" clip-rule="evenodd" d="M159.649 3.57113V26.8662C159.649 27.2339 159.791 27.382 160.158 27.382H162.393V33.2039H156.646C154.164 33.2039 153.496 31.886 153.361 30.8445C152.331 32.039 150.221 33.7517 146.562 33.7517C140.159 33.7517 135.856 28.6875 135.856 21.1454C135.856 13.7218 140.347 8.53665 146.785 8.53665C150.077 8.53665 151.988 9.70894 152.967 10.5999V6.38953C152.967 5.9996 152.842 5.8762 152.458 5.8762H150.175V0H156.103C158.487 0 159.649 1.16981 159.649 3.57113ZM142.623 21.1454C142.623 25.2619 144.665 27.9249 147.82 27.9249C150.373 27.9249 153.104 26.1356 153.104 21.101C153.104 17.7915 151.496 14.4573 147.91 14.4573C144.748 14.4573 142.623 17.1425 142.623 21.1454Z" fill="#192435"/>
<path d="M177.154 8.76344C174.393 8.76344 171.853 10.3701 170.345 12.9294V12.379C170.345 10.1924 169.148 9.08181 166.798 9.08181H161.095V14.9555H163.376C163.761 14.9555 163.888 15.079 163.888 15.4688V33.2036H170.521V23.5514C170.521 22.2804 170.683 21.0564 170.996 19.9235C171.995 16.5943 174.648 15.4096 176.794 15.4096C177.556 15.4096 178.109 15.4912 178.119 15.4935L178.672 15.5775V8.9288L178.268 8.85969C178.248 8.85476 177.685 8.76344 177.154 8.76344Z" fill="#192435"/>
<path d="M188.114 26.8663V12.6533C188.114 10.252 186.971 9.08218 184.618 9.08218H179.256V14.9559H180.969C181.357 14.9559 181.478 15.0818 181.478 15.4693V29.6328C181.478 32.0711 182.592 33.204 184.979 33.204H190.909V27.3821H188.623C188.257 27.3821 188.114 27.234 188.114 26.8663Z" fill="#192435"/>
<path d="M213.157 9.08218H209.618C207.55 9.08218 206.441 9.80531 205.784 11.5798L201.46 23.7592C201.31 24.2108 201.17 24.7167 201.05 25.2029C200.926 24.7167 200.776 24.2034 200.613 23.7518L196.287 11.5773C195.624 9.78309 194.552 9.08218 192.457 9.08218H188.692V14.9559H189.668C190.188 14.9559 190.354 15.1337 190.477 15.4595L197.171 33.204H204.631L211.325 15.4595C211.448 15.1337 211.62 14.9559 212.138 14.9559H213.157V9.08218Z" fill="#192435"/>
<path fill-rule="evenodd" clip-rule="evenodd" d="M212.439 21.1461C212.439 13.7224 217.436 8.53727 224.58 8.53727C230.958 8.53727 235.244 13.1474 235.244 20.0083C235.244 20.7043 235.109 22.1283 235.103 22.1875L235.066 22.6268H219.33C219.904 25.8352 222.338 27.881 225.664 27.881C229.115 27.881 231.751 25.4452 231.774 25.423L232.214 25.0133L235.097 29.8481L234.828 30.1147C234.679 30.2627 231.105 33.7523 225.258 33.7523C217.827 33.7523 212.439 28.4488 212.439 21.1461ZM224.58 13.9544C222.096 13.9544 220.304 15.297 219.577 17.6638H228.388C228.117 15.487 226.582 13.9544 224.58 13.9544Z" fill="#192435"/>
<path d="M83.8937 0.00160217H77.9802V6.28255H83.8937V0.00160217Z" fill="#192435"/>
<path d="M187.664 0.00160217H181.748V6.28255H187.664V0.00160217Z" fill="#192435"/>
</svg>
