<svg width="48" height="48" viewBox="0 0 48 48" fill="none" xmlns="http://www.w3.org/2000/svg">
<g clip-path="url(#clip0_203_370)">
<path d="M23.7039 23.5692L23.1529 23.9715L23.7025 24.3758L35.1293 32.7817L35.9259 33.3676L35.9256 32.3788L35.9207 15.6338L35.9204 14.6501L35.1258 15.2302L23.7039 23.5692ZM5.21831 29.0289L5.21912 30.1376L6.04959 29.403L11.7581 24.3534L12.1846 23.9762L11.7554 23.602L6.03955 18.6192L5.21018 17.8962L5.21099 18.9965L5.21831 29.0289ZM16.2988 19.388L16.6366 19.6392L16.9417 19.349L36.6749 0.581572L47.4975 4.8178L47.5 43.1994L36.687 47.4189L16.9068 28.668L16.6017 28.3789L16.2645 28.6296L4.4973 37.3775L0.500065 35.4198L0.504842 12.6067L4.52228 10.6322L16.2988 19.388Z" fill="#D5F131" stroke="black"/>
</g>
<defs>
<clipPath id="clip0_203_370">
<rect width="48" height="48" fill="white"/>
</clipPath>
</defs>
</svg>
